<svg width="1150" height="237" viewBox="0 0 1150 237" fill="none" xmlns="http://www.w3.org/2000/svg">
<g filter="url(#filter0_d_1_1424)">
<rect x="20" y="20.0001" width="1110" height="197" rx="30" fill="#101010"/>
</g>
<path d="M274.327 102.14H263.827L261.757 107H257.737L267.187 86.0001H271.027L280.507 107H276.427L274.327 102.14ZM273.037 99.0801L269.077 89.9001L265.147 99.0801H273.037ZM289.967 100.58H287.057V107H283.307V90.9801H287.057V97.4601H290.057L294.797 90.9801H298.817L292.997 98.6901L299.207 107H294.797L289.967 100.58ZM308.615 107.21C306.955 107.21 305.465 106.86 304.145 106.16C302.825 105.46 301.795 104.49 301.055 103.25C300.315 101.99 299.945 100.57 299.945 98.9901C299.945 97.4101 300.315 96.0001 301.055 94.7601C301.795 93.5201 302.815 92.5501 304.115 91.8501C305.435 91.1501 306.935 90.8001 308.615 90.8001C310.195 90.8001 311.575 91.1201 312.755 91.7601C313.955 92.4001 314.855 93.3201 315.455 94.5201L312.575 96.2001C312.115 95.4601 311.535 94.9101 310.835 94.5501C310.155 94.1701 309.405 93.9801 308.585 93.9801C307.185 93.9801 306.025 94.4401 305.105 95.3601C304.185 96.2601 303.725 97.4701 303.725 98.9901C303.725 100.51 304.175 101.73 305.075 102.65C305.995 103.55 307.165 104 308.585 104C309.405 104 310.155 103.82 310.835 103.46C311.535 103.08 312.115 102.52 312.575 101.78L315.455 103.46C314.835 104.66 313.925 105.59 312.725 106.25C311.545 106.89 310.175 107.21 308.615 107.21ZM333.522 99.0801C333.522 99.3401 333.502 99.7101 333.462 100.19H320.892C321.112 101.37 321.682 102.31 322.602 103.01C323.542 103.69 324.702 104.03 326.082 104.03C327.842 104.03 329.292 103.45 330.432 102.29L332.442 104.6C331.722 105.46 330.812 106.11 329.712 106.55C328.612 106.99 327.372 107.21 325.992 107.21C324.232 107.21 322.682 106.86 321.342 106.16C320.002 105.46 318.962 104.49 318.222 103.25C317.502 101.99 317.142 100.57 317.142 98.9901C317.142 97.4301 317.492 96.0301 318.192 94.7901C318.912 93.5301 319.902 92.5501 321.162 91.8501C322.422 91.1501 323.842 90.8001 325.422 90.8001C326.982 90.8001 328.372 91.1501 329.592 91.8501C330.832 92.5301 331.792 93.5001 332.472 94.7601C333.172 96.0001 333.522 97.4401 333.522 99.0801ZM325.422 93.8001C324.222 93.8001 323.202 94.1601 322.362 94.8801C321.542 95.5801 321.042 96.5201 320.862 97.7001H329.952C329.792 96.5401 329.302 95.6001 328.482 94.8801C327.662 94.1601 326.642 93.8001 325.422 93.8001ZM344.914 107.21C343.254 107.21 341.764 106.86 340.444 106.16C339.124 105.46 338.094 104.49 337.354 103.25C336.614 101.99 336.244 100.57 336.244 98.9901C336.244 97.4101 336.614 96.0001 337.354 94.7601C338.094 93.5201 339.114 92.5501 340.414 91.8501C341.734 91.1501 343.234 90.8001 344.914 90.8001C346.494 90.8001 347.874 91.1201 349.054 91.7601C350.254 92.4001 351.154 93.3201 351.754 94.5201L348.874 96.2001C348.414 95.4601 347.834 94.9101 347.134 94.5501C346.454 94.1701 345.704 93.9801 344.884 93.9801C343.484 93.9801 342.324 94.4401 341.404 95.3601C340.484 96.2601 340.024 97.4701 340.024 98.9901C340.024 100.51 340.474 101.73 341.374 102.65C342.294 103.55 343.464 104 344.884 104C345.704 104 346.454 103.82 347.134 103.46C347.834 103.08 348.414 102.52 348.874 101.78L351.754 103.46C351.134 104.66 350.224 105.59 349.024 106.25C347.844 106.89 346.474 107.21 344.914 107.21ZM362.111 107.21C360.451 107.21 358.961 106.86 357.641 106.16C356.321 105.46 355.291 104.49 354.551 103.25C353.811 101.99 353.441 100.57 353.441 98.9901C353.441 97.4101 353.811 96.0001 354.551 94.7601C355.291 93.5201 356.311 92.5501 357.611 91.8501C358.931 91.1501 360.431 90.8001 362.111 90.8001C363.691 90.8001 365.071 91.1201 366.251 91.7601C367.451 92.4001 368.351 93.3201 368.951 94.5201L366.071 96.2001C365.611 95.4601 365.031 94.9101 364.331 94.5501C363.651 94.1701 362.901 93.9801 362.081 93.9801C360.681 93.9801 359.521 94.4401 358.601 95.3601C357.681 96.2601 357.221 97.4701 357.221 98.9901C357.221 100.51 357.671 101.73 358.571 102.65C359.491 103.55 360.661 104 362.081 104C362.901 104 363.651 103.82 364.331 103.46C365.031 103.08 365.611 102.52 366.071 101.78L368.951 103.46C368.331 104.66 367.421 105.59 366.221 106.25C365.041 106.89 363.671 107.21 362.111 107.21ZM387.167 90.9801L379.667 108.29C378.967 110.03 378.117 111.25 377.117 111.95C376.117 112.67 374.907 113.03 373.487 113.03C372.687 113.03 371.897 112.9 371.117 112.64C370.337 112.38 369.697 112.02 369.197 111.56L370.697 108.8C371.057 109.14 371.477 109.41 371.957 109.61C372.457 109.81 372.957 109.91 373.457 109.91C374.117 109.91 374.657 109.74 375.077 109.4C375.517 109.06 375.917 108.49 376.277 107.69L376.547 107.06L369.557 90.9801H373.457L378.497 102.83L383.567 90.9801H387.167ZM395.244 90.8001C397.604 90.8001 399.404 91.3701 400.644 92.5101C401.904 93.6301 402.534 95.3301 402.534 97.6101V107H398.994V105.05C398.534 105.75 397.874 106.29 397.014 106.67C396.174 107.03 395.154 107.21 393.954 107.21C392.754 107.21 391.704 107.01 390.804 106.61C389.904 106.19 389.204 105.62 388.704 104.9C388.224 104.16 387.984 103.33 387.984 102.41C387.984 100.97 388.514 99.8201 389.574 98.9601C390.654 98.0801 392.344 97.6401 394.644 97.6401H398.784V97.4001C398.784 96.2801 398.444 95.4201 397.764 94.8201C397.104 94.2201 396.114 93.9201 394.794 93.9201C393.894 93.9201 393.004 94.0601 392.124 94.3401C391.264 94.6201 390.534 95.0101 389.934 95.5101L388.464 92.7801C389.304 92.1401 390.314 91.6501 391.494 91.3101C392.674 90.9701 393.924 90.8001 395.244 90.8001ZM394.734 104.48C395.674 104.48 396.504 104.27 397.224 103.85C397.964 103.41 398.484 102.79 398.784 101.99V100.13H394.914C392.754 100.13 391.674 100.84 391.674 102.26C391.674 102.94 391.944 103.48 392.484 103.88C393.024 104.28 393.774 104.48 394.734 104.48ZM416.054 90.8001C417.614 90.8001 419.004 91.1401 420.224 91.8201C421.464 92.5001 422.434 93.4601 423.134 94.7001C423.834 95.9401 424.184 97.3701 424.184 98.9901C424.184 100.61 423.834 102.05 423.134 103.31C422.434 104.55 421.464 105.51 420.224 106.19C419.004 106.87 417.614 107.21 416.054 107.21C413.894 107.21 412.184 106.49 410.924 105.05V112.82H407.174V90.9801H410.744V93.0801C411.364 92.3201 412.124 91.7501 413.024 91.3701C413.944 90.9901 414.954 90.8001 416.054 90.8001ZM415.634 104C417.014 104 418.144 103.54 419.024 102.62C419.924 101.7 420.374 100.49 420.374 98.9901C420.374 97.4901 419.924 96.2801 419.024 95.3601C418.144 94.4401 417.014 93.9801 415.634 93.9801C414.734 93.9801 413.924 94.1901 413.204 94.6101C412.484 95.0101 411.914 95.5901 411.494 96.3501C411.074 97.1101 410.864 97.9901 410.864 98.9901C410.864 99.9901 411.074 100.87 411.494 101.63C411.914 102.39 412.484 102.98 413.204 103.4C413.924 103.8 414.734 104 415.634 104ZM435.716 96.2601C437.756 96.2601 439.316 96.7201 440.396 97.6401C441.476 98.5601 442.016 99.8601 442.016 101.54C442.016 103.3 441.416 104.66 440.216 105.62C439.036 106.58 437.356 107.05 435.176 107.03L427.916 107V90.9801H431.666V96.2301L435.716 96.2601ZM444.086 90.9801H447.836V107H444.086V90.9801ZM434.846 104.27C435.946 104.29 436.786 104.06 437.366 103.58C437.946 103.1 438.236 102.4 438.236 101.48C438.236 100.58 437.956 99.9201 437.396 99.5001C436.836 99.0801 435.986 98.8601 434.846 98.8401L431.666 98.8101V104.24L434.846 104.27ZM478.268 103.82V110.57H474.758V107H462.398V110.57H458.918V103.82H459.668C460.688 103.78 461.378 103.13 461.738 101.87C462.118 100.59 462.368 98.7901 462.488 96.4701L462.698 90.9801H475.898V103.82H478.268ZM465.908 96.7401C465.828 98.5801 465.678 100.08 465.458 101.24C465.238 102.4 464.838 103.26 464.258 103.82H472.148V94.1601H465.998L465.908 96.7401ZM496.138 90.9801V107H492.388V94.1601H486.388L486.238 97.3401C486.138 99.4601 485.938 101.24 485.638 102.68C485.358 104.1 484.868 105.23 484.168 106.07C483.488 106.89 482.548 107.3 481.348 107.3C480.788 107.3 480.098 107.19 479.278 106.97L479.458 103.82C479.738 103.88 479.978 103.91 480.178 103.91C480.938 103.91 481.508 103.61 481.888 103.01C482.268 102.39 482.508 101.66 482.608 100.82C482.728 99.9601 482.828 98.7401 482.908 97.1601L483.178 90.9801H496.138ZM514.718 90.9801V107H511.358V102.17H507.128L503.858 107H499.838L503.618 101.66C502.458 101.26 501.568 100.65 500.948 99.8301C500.348 98.9901 500.048 97.9601 500.048 96.7401C500.048 94.9001 500.698 93.4801 501.998 92.4801C503.298 91.4801 505.088 90.9801 507.368 90.9801H514.718ZM507.488 94.1301C505.068 94.1301 503.858 95.0401 503.858 96.8601C503.858 98.6601 505.028 99.5601 507.368 99.5601H511.358V94.1301H507.488ZM254.164 123H258.064V144H254.164V123ZM272.264 127.8C273.824 127.8 275.214 128.14 276.434 128.82C277.674 129.5 278.644 130.46 279.344 131.7C280.044 132.94 280.394 134.37 280.394 135.99C280.394 137.61 280.044 139.05 279.344 140.31C278.644 141.55 277.674 142.51 276.434 143.19C275.214 143.87 273.824 144.21 272.264 144.21C270.104 144.21 268.394 143.49 267.134 142.05V149.82H263.384V127.98H266.954V130.08C267.574 129.32 268.334 128.75 269.234 128.37C270.154 127.99 271.164 127.8 272.264 127.8ZM271.844 141C273.224 141 274.354 140.54 275.234 139.62C276.134 138.7 276.584 137.49 276.584 135.99C276.584 134.49 276.134 133.28 275.234 132.36C274.354 131.44 273.224 130.98 271.844 130.98C270.944 130.98 270.134 131.19 269.414 131.61C268.694 132.01 268.124 132.59 267.704 133.35C267.284 134.11 267.074 134.99 267.074 135.99C267.074 136.99 267.284 137.87 267.704 138.63C268.124 139.39 268.694 139.98 269.414 140.4C270.134 140.8 270.944 141 271.844 141ZM293.04 127.8C295.06 127.8 296.68 128.39 297.9 129.57C299.12 130.75 299.73 132.5 299.73 134.82V144H295.98V135.3C295.98 133.9 295.65 132.85 294.99 132.15C294.33 131.43 293.39 131.07 292.17 131.07C290.79 131.07 289.7 131.49 288.9 132.33C288.1 133.15 287.7 134.34 287.7 135.9V144H283.95V121.74H287.7V129.84C288.32 129.18 289.08 128.68 289.98 128.34C290.9 127.98 291.92 127.8 293.04 127.8ZM311.834 144.21C310.214 144.21 308.754 143.86 307.454 143.16C306.154 142.46 305.134 141.49 304.394 140.25C303.674 138.99 303.314 137.57 303.314 135.99C303.314 134.41 303.674 133 304.394 131.76C305.134 130.52 306.154 129.55 307.454 128.85C308.754 128.15 310.214 127.8 311.834 127.8C313.474 127.8 314.944 128.15 316.244 128.85C317.544 129.55 318.554 130.52 319.274 131.76C320.014 133 320.384 134.41 320.384 135.99C320.384 137.57 320.014 138.99 319.274 140.25C318.554 141.49 317.544 142.46 316.244 143.16C314.944 143.86 313.474 144.21 311.834 144.21ZM311.834 141C313.214 141 314.354 140.54 315.254 139.62C316.154 138.7 316.604 137.49 316.604 135.99C316.604 134.49 316.154 133.28 315.254 132.36C314.354 131.44 313.214 130.98 311.834 130.98C310.454 130.98 309.314 131.44 308.414 132.36C307.534 133.28 307.094 134.49 307.094 135.99C307.094 137.49 307.534 138.7 308.414 139.62C309.314 140.54 310.454 141 311.834 141ZM333.06 127.8C335.08 127.8 336.7 128.39 337.92 129.57C339.14 130.75 339.75 132.5 339.75 134.82V144H336V135.3C336 133.9 335.67 132.85 335.01 132.15C334.35 131.43 333.41 131.07 332.19 131.07C330.81 131.07 329.72 131.49 328.92 132.33C328.12 133.15 327.72 134.34 327.72 135.9V144H323.97V127.98H327.54V130.05C328.16 129.31 328.94 128.75 329.88 128.37C330.82 127.99 331.88 127.8 333.06 127.8ZM359.713 136.08C359.713 136.34 359.693 136.71 359.653 137.19H347.083C347.303 138.37 347.873 139.31 348.793 140.01C349.733 140.69 350.893 141.03 352.273 141.03C354.033 141.03 355.483 140.45 356.623 139.29L358.633 141.6C357.913 142.46 357.003 143.11 355.903 143.55C354.803 143.99 353.563 144.21 352.183 144.21C350.423 144.21 348.873 143.86 347.533 143.16C346.193 142.46 345.153 141.49 344.413 140.25C343.693 138.99 343.333 137.57 343.333 135.99C343.333 134.43 343.683 133.03 344.383 131.79C345.103 130.53 346.093 129.55 347.353 128.85C348.613 128.15 350.033 127.8 351.613 127.8C353.173 127.8 354.563 128.15 355.783 128.85C357.023 129.53 357.983 130.5 358.663 131.76C359.363 133 359.713 134.44 359.713 136.08ZM351.613 130.8C350.413 130.8 349.393 131.16 348.553 131.88C347.733 132.58 347.233 133.52 347.053 134.7H356.143C355.983 133.54 355.493 132.6 354.673 131.88C353.853 131.16 352.833 130.8 351.613 130.8ZM377.726 123V144H373.826V126.27H369.386V123H377.726ZM390.832 131.67C392.772 131.91 394.252 132.57 395.272 133.65C396.292 134.73 396.802 136.08 396.802 137.7C396.802 138.92 396.492 140.03 395.872 141.03C395.252 142.03 394.312 142.83 393.052 143.43C391.812 144.01 390.292 144.3 388.492 144.3C386.992 144.3 385.542 144.09 384.142 143.67C382.762 143.23 381.582 142.63 380.602 141.87L382.282 138.84C383.042 139.48 383.962 139.99 385.042 140.37C386.142 140.73 387.272 140.91 388.432 140.91C389.812 140.91 390.892 140.63 391.672 140.07C392.472 139.49 392.872 138.71 392.872 137.73C392.872 136.75 392.492 135.99 391.732 135.45C390.992 134.89 389.852 134.61 388.312 134.61H386.392V131.94L391.162 126.27H381.622V123H395.932V125.61L390.832 131.67ZM417.784 123C419.604 123 421.184 123.3 422.524 123.9C423.884 124.5 424.924 125.36 425.644 126.48C426.364 127.6 426.724 128.93 426.724 130.47C426.724 131.99 426.364 133.32 425.644 134.46C424.924 135.58 423.884 136.44 422.524 137.04C421.184 137.64 419.604 137.94 417.784 137.94H413.044V144H409.144V123H417.784ZM417.604 134.64C419.304 134.64 420.594 134.28 421.474 133.56C422.354 132.84 422.794 131.81 422.794 130.47C422.794 129.13 422.354 128.1 421.474 127.38C420.594 126.66 419.304 126.3 417.604 126.3H413.044V134.64H417.604ZM433.682 130.32C434.762 128.64 436.662 127.8 439.382 127.8V131.37C439.062 131.31 438.772 131.28 438.512 131.28C437.052 131.28 435.912 131.71 435.092 132.57C434.272 133.41 433.862 134.63 433.862 136.23V144H430.112V127.98H433.682V130.32ZM449.617 144.21C447.997 144.21 446.537 143.86 445.237 143.16C443.937 142.46 442.917 141.49 442.177 140.25C441.457 138.99 441.097 137.57 441.097 135.99C441.097 134.41 441.457 133 442.177 131.76C442.917 130.52 443.937 129.55 445.237 128.85C446.537 128.15 447.997 127.8 449.617 127.8C451.257 127.8 452.727 128.15 454.027 128.85C455.327 129.55 456.337 130.52 457.057 131.76C457.797 133 458.167 134.41 458.167 135.99C458.167 137.57 457.797 138.99 457.057 140.25C456.337 141.49 455.327 142.46 454.027 143.16C452.727 143.86 451.257 144.21 449.617 144.21ZM449.617 141C450.997 141 452.137 140.54 453.037 139.62C453.937 138.7 454.387 137.49 454.387 135.99C454.387 134.49 453.937 133.28 453.037 132.36C452.137 131.44 450.997 130.98 449.617 130.98C448.237 130.98 447.097 131.44 446.197 132.36C445.317 133.28 444.877 134.49 444.877 135.99C444.877 137.49 445.317 138.7 446.197 139.62C447.097 140.54 448.237 141 449.617 141ZM489.694 144L489.664 130.08L482.764 141.6H481.024L474.124 130.26V144H470.404V123H473.614L481.954 136.92L490.144 123H493.354L493.384 144H489.694ZM504.816 127.8C507.176 127.8 508.976 128.37 510.216 129.51C511.476 130.63 512.106 132.33 512.106 134.61V144H508.566V142.05C508.106 142.75 507.446 143.29 506.586 143.67C505.746 144.03 504.726 144.21 503.526 144.21C502.326 144.21 501.276 144.01 500.376 143.61C499.476 143.19 498.776 142.62 498.276 141.9C497.796 141.16 497.556 140.33 497.556 139.41C497.556 137.97 498.086 136.82 499.146 135.96C500.226 135.08 501.916 134.64 504.216 134.64H508.356V134.4C508.356 133.28 508.016 132.42 507.336 131.82C506.676 131.22 505.686 130.92 504.366 130.92C503.466 130.92 502.576 131.06 501.696 131.34C500.836 131.62 500.106 132.01 499.506 132.51L498.036 129.78C498.876 129.14 499.886 128.65 501.066 128.31C502.246 127.97 503.496 127.8 504.816 127.8ZM504.306 141.48C505.246 141.48 506.076 141.27 506.796 140.85C507.536 140.41 508.056 139.79 508.356 138.99V137.13H504.486C502.326 137.13 501.246 137.84 501.246 139.26C501.246 139.94 501.516 140.48 502.056 140.88C502.596 141.28 503.346 141.48 504.306 141.48ZM527.119 144L523.009 138.45L518.869 144H514.729L520.969 135.87L514.999 127.98H519.169L523.099 133.23L527.029 127.98H531.079L525.079 135.81L531.349 144H527.119Z" fill="white"/>
<defs>
<filter id="filter0_d_1_1424" x="0" y="5.34058e-05" width="1150" height="237" filterUnits="userSpaceOnUse" color-interpolation-filters="sRGB">
<feFlood flood-opacity="0" result="BackgroundImageFix"/>
<feColorMatrix in="SourceAlpha" type="matrix" values="0 0 0 0 0 0 0 0 0 0 0 0 0 0 0 0 0 0 127 0" result="hardAlpha"/>
<feOffset/>
<feGaussianBlur stdDeviation="10"/>
<feComposite in2="hardAlpha" operator="out"/>
<feColorMatrix type="matrix" values="0 0 0 0 0 0 0 0 0 0 0 0 0 0 0 0 0 0 0.1 0"/>
<feBlend mode="normal" in2="BackgroundImageFix" result="effect1_dropShadow_1_1424"/>
<feBlend mode="normal" in="SourceGraphic" in2="effect1_dropShadow_1_1424" result="shape"/>
</filter>
</defs>
</svg>