<svg xmlns="http://www.w3.org/2000/svg" width="20" height="20" viewBox="0 0 20 20" fill="none">
  <g clip-path="url(#clip0_1_1588)">
    <path d="M1.66667 10.0001C1.66667 14.6026 5.39751 18.3334 10 18.3334C14.6025 18.3334 18.3333 14.6026 18.3333 10.0001C18.3333 5.39758 14.6025 1.66675 10 1.66675C5.39751 1.66675 1.66667 5.39758 1.66667 10.0001Z" stroke="#838383" stroke-width="1.5" stroke-linecap="round" stroke-linejoin="round"/>
    <path d="M10.8333 1.7085C10.8333 1.7085 13.3333 5.00016 13.3333 10.0002C13.3333 15.0002 10.8333 18.2918 10.8333 18.2918" stroke="#838383" stroke-width="1.5" stroke-linecap="round" stroke-linejoin="round"/>
    <path d="M9.16667 18.2918C9.16667 18.2918 6.66667 15.0002 6.66667 10.0002C6.66667 5.00016 9.16667 1.7085 9.16667 1.7085" stroke="#838383" stroke-width="1.5" stroke-linecap="round" stroke-linejoin="round"/>
    <path d="M2.19167 12.9167H17.8083" stroke="#838383" stroke-width="1.5" stroke-linecap="round" stroke-linejoin="round"/>
    <path d="M2.19167 7.0835H17.8083" stroke="#838383" stroke-width="1.5" stroke-linecap="round" stroke-linejoin="round"/>
  </g>
  <defs>
    <clipPath id="clip0_1_1588">
      <rect width="20" height="20" fill="white"/>
    </clipPath>
  </defs>
</svg>