<svg width="63" height="60" viewBox="0 0 63 60" fill="none" xmlns="http://www.w3.org/2000/svg">
<path d="M31.4867 21.6543C34.0706 19.3724 38.0635 19.4482 40.5528 21.901C43.0409 24.3549 43.1267 28.2629 40.8124 30.812L31.4845 40L22.1589 30.812C19.8446 28.2629 19.9315 24.3484 22.4185 21.901C24.91 19.4514 28.8952 19.3692 31.4867 21.6543ZM38.9952 23.4298C37.3452 21.8047 34.6833 21.7387 32.9563 23.2643L31.4878 24.5604L30.0183 23.2653C28.2858 21.7376 25.6294 21.8047 23.975 23.432C22.336 25.0441 22.2535 27.6245 23.7638 29.3297L31.4856 36.937L39.2075 29.3308C40.7189 27.6245 40.6364 25.0473 38.9952 23.4298Z" fill="#838383"/>
</svg>
