<svg width="210" height="15" viewBox="0 0 210 15" fill="none" xmlns="http://www.w3.org/2000/svg">
<path d="M0.635 12V1.5H5.15C6.29 1.5 7.185 1.73 7.835 2.19C8.485 2.65 8.81 3.32 8.81 4.2C8.81 5.06 8.5 5.72 7.88 6.18C7.26 6.63 6.445 6.855 5.435 6.855L5.705 6.405C6.875 6.405 7.77 6.64 8.39 7.11C9.02 7.57 9.335 8.245 9.335 9.135C9.335 10.035 9.005 10.74 8.345 11.25C7.695 11.75 6.725 12 5.435 12H0.635ZM2.12 10.815H5.405C6.205 10.815 6.805 10.67 7.205 10.38C7.615 10.08 7.82 9.625 7.82 9.015C7.82 8.405 7.615 7.96 7.205 7.68C6.805 7.4 6.205 7.26 5.405 7.26H2.12V10.815ZM2.12 6.12H5.045C5.775 6.12 6.33 5.975 6.71 5.685C7.1 5.395 7.295 4.97 7.295 4.41C7.295 3.84 7.1 3.41 6.71 3.12C6.33 2.83 5.775 2.685 5.045 2.685H2.12V6.12ZM19.4611 12V4.05H20.9011V12H19.4611ZM15.1861 6.75C16.1961 6.76 16.9611 6.99 17.4811 7.44C18.0111 7.89 18.2761 8.525 18.2761 9.345C18.2761 10.205 17.9861 10.87 17.4061 11.34C16.8361 11.8 16.0161 12.025 14.9461 12.015L11.6011 12V4.05H13.0411V6.735L15.1861 6.75ZM14.8411 10.92C15.4811 10.93 15.9711 10.8 16.3111 10.53C16.6511 10.26 16.8211 9.86 16.8211 9.33C16.8211 8.81 16.6511 8.43 16.3111 8.19C15.9811 7.95 15.4911 7.825 14.8411 7.815L13.0411 7.785V10.905L14.8411 10.92ZM27.3757 12.12C26.7157 12.12 26.1307 12.015 25.6207 11.805C25.1207 11.595 24.6907 11.285 24.3307 10.875C23.9707 10.455 23.6957 9.93 23.5057 9.3C23.3257 8.66 23.2357 7.91 23.2357 7.05C23.2357 6.37 23.2957 5.76 23.4157 5.22C23.5357 4.68 23.7057 4.2 23.9257 3.78C24.1557 3.36 24.4357 2.995 24.7657 2.685C25.1057 2.375 25.4857 2.12 25.9057 1.92C26.3357 1.71 26.8057 1.55 27.3157 1.44L30.9457 0.63L31.1557 1.965L27.8107 2.685C27.6107 2.725 27.3707 2.785 27.0907 2.865C26.8107 2.945 26.5257 3.07 26.2357 3.24C25.9457 3.4 25.6757 3.625 25.4257 3.915C25.1757 4.205 24.9757 4.585 24.8257 5.055C24.6757 5.515 24.6007 6.085 24.6007 6.765C24.6007 6.955 24.6057 7.1 24.6157 7.2C24.6257 7.3 24.6357 7.4 24.6457 7.5C24.6657 7.6 24.6807 7.75 24.6907 7.95L24.0907 7.335C24.2507 6.785 24.5057 6.305 24.8557 5.895C25.2057 5.485 25.6257 5.17 26.1157 4.95C26.6157 4.72 27.1607 4.605 27.7507 4.605C28.4907 4.605 29.1457 4.765 29.7157 5.085C30.2957 5.405 30.7507 5.845 31.0807 6.405C31.4107 6.965 31.5757 7.605 31.5757 8.325C31.5757 9.055 31.4007 9.71 31.0507 10.29C30.7107 10.86 30.2257 11.31 29.5957 11.64C28.9657 11.96 28.2257 12.12 27.3757 12.12ZM27.5107 10.92C28.0207 10.92 28.4707 10.81 28.8607 10.59C29.2507 10.36 29.5557 10.055 29.7757 9.675C29.9957 9.285 30.1057 8.85 30.1057 8.37C30.1057 7.89 29.9957 7.465 29.7757 7.095C29.5557 6.725 29.2507 6.435 28.8607 6.225C28.4707 6.005 28.0107 5.895 27.4807 5.895C26.9807 5.895 26.5307 6 26.1307 6.21C25.7307 6.41 25.4207 6.695 25.2007 7.065C24.9807 7.425 24.8707 7.845 24.8707 8.325C24.8707 8.805 24.9807 9.245 25.2007 9.645C25.4307 10.035 25.7407 10.345 26.1307 10.575C26.5307 10.805 26.9907 10.92 27.5107 10.92ZM37.8473 12.09C37.1873 12.09 36.5823 11.94 36.0323 11.64C35.4923 11.33 35.0573 10.875 34.7273 10.275C34.4073 9.675 34.2473 8.925 34.2473 8.025C34.2473 7.125 34.4023 6.375 34.7123 5.775C35.0323 5.175 35.4623 4.725 36.0023 4.425C36.5523 4.125 37.1673 3.975 37.8473 3.975C38.6273 3.975 39.3173 4.145 39.9173 4.485C40.5173 4.825 40.9923 5.3 41.3423 5.91C41.6923 6.51 41.8673 7.215 41.8673 8.025C41.8673 8.835 41.6923 9.545 41.3423 10.155C40.9923 10.765 40.5173 11.24 39.9173 11.58C39.3173 11.92 38.6273 12.09 37.8473 12.09ZM33.6323 14.91V4.05H35.0123V6.195L34.9223 8.04L35.0723 9.885V14.91H33.6323ZM37.7273 10.83C38.2373 10.83 38.6923 10.715 39.0923 10.485C39.5023 10.255 39.8223 9.93 40.0523 9.51C40.2923 9.08 40.4123 8.585 40.4123 8.025C40.4123 7.455 40.2923 6.965 40.0523 6.555C39.8223 6.135 39.5023 5.81 39.0923 5.58C38.6923 5.35 38.2373 5.235 37.7273 5.235C37.2273 5.235 36.7723 5.35 36.3623 5.58C35.9623 5.81 35.6423 6.135 35.4023 6.555C35.1723 6.965 35.0573 7.455 35.0573 8.025C35.0573 8.585 35.1723 9.08 35.4023 9.51C35.6423 9.93 35.9623 10.255 36.3623 10.485C36.7723 10.715 37.2273 10.83 37.7273 10.83ZM48.7612 12V10.32L48.6862 10.005V7.14C48.6862 6.53 48.5062 6.06 48.1462 5.73C47.7962 5.39 47.2662 5.22 46.5562 5.22C46.0862 5.22 45.6262 5.3 45.1762 5.46C44.7262 5.61 44.3462 5.815 44.0362 6.075L43.4362 4.995C43.8462 4.665 44.3362 4.415 44.9062 4.245C45.4862 4.065 46.0912 3.975 46.7212 3.975C47.8112 3.975 48.6512 4.24 49.2412 4.77C49.8312 5.3 50.1262 6.11 50.1262 7.2V12H48.7612ZM46.1512 12.09C45.5612 12.09 45.0412 11.99 44.5912 11.79C44.1512 11.59 43.8112 11.315 43.5712 10.965C43.3312 10.605 43.2112 10.2 43.2112 9.75C43.2112 9.32 43.3112 8.93 43.5112 8.58C43.7212 8.23 44.0562 7.95 44.5162 7.74C44.9862 7.53 45.6162 7.425 46.4062 7.425H48.9262V8.46H46.4662C45.7462 8.46 45.2612 8.58 45.0112 8.82C44.7612 9.06 44.6362 9.35 44.6362 9.69C44.6362 10.08 44.7912 10.395 45.1012 10.635C45.4112 10.865 45.8412 10.98 46.3912 10.98C46.9312 10.98 47.4012 10.86 47.8012 10.62C48.2112 10.38 48.5062 10.03 48.6862 9.57L48.9712 10.56C48.7812 11.03 48.4462 11.405 47.9662 11.685C47.4862 11.955 46.8812 12.09 46.1512 12.09ZM54.2942 12V4.935L54.6542 5.31H51.3842V4.05H58.6442V5.31H55.3892L55.7342 4.935V12H54.2942ZM63.7917 6.75C64.8017 6.76 65.5717 6.99 66.1017 7.44C66.6317 7.89 66.8967 8.525 66.8967 9.345C66.8967 10.205 66.6067 10.87 66.0267 11.34C65.4467 11.8 64.6267 12.025 63.5667 12.015L60.1167 12V4.05H61.5567V6.735L63.7917 6.75ZM63.4467 10.92C64.0967 10.93 64.5867 10.8 64.9167 10.53C65.2567 10.26 65.4267 9.86 65.4267 9.33C65.4267 8.81 65.2617 8.43 64.9317 8.19C64.6017 7.95 64.1067 7.825 63.4467 7.815L61.5567 7.785V10.905L63.4467 10.92ZM72.7729 12V4.05H74.2579L77.6779 9.93H77.0779L80.5879 4.05H81.9379V12H80.6329V5.67L80.8729 5.805L77.6629 11.1H77.0329L73.8079 5.7L74.0929 5.64V12H72.7729ZM88.1457 12.09C87.3457 12.09 86.6357 11.915 86.0157 11.565C85.3957 11.215 84.9057 10.735 84.5457 10.125C84.1857 9.505 84.0057 8.805 84.0057 8.025C84.0057 7.235 84.1857 6.535 84.5457 5.925C84.9057 5.315 85.3957 4.84 86.0157 4.5C86.6357 4.15 87.3457 3.975 88.1457 3.975C88.9357 3.975 89.6407 4.15 90.2607 4.5C90.8907 4.84 91.3807 5.315 91.7307 5.925C92.0907 6.525 92.2707 7.225 92.2707 8.025C92.2707 8.815 92.0907 9.515 91.7307 10.125C91.3807 10.735 90.8907 11.215 90.2607 11.565C89.6407 11.915 88.9357 12.09 88.1457 12.09ZM88.1457 10.83C88.6557 10.83 89.1107 10.715 89.5107 10.485C89.9207 10.255 90.2407 9.93 90.4707 9.51C90.7007 9.08 90.8157 8.585 90.8157 8.025C90.8157 7.455 90.7007 6.965 90.4707 6.555C90.2407 6.135 89.9207 5.81 89.5107 5.58C89.1107 5.35 88.6557 5.235 88.1457 5.235C87.6357 5.235 87.1807 5.35 86.7807 5.58C86.3807 5.81 86.0607 6.135 85.8207 6.555C85.5807 6.965 85.4607 7.455 85.4607 8.025C85.4607 8.585 85.5807 9.08 85.8207 9.51C86.0607 9.93 86.3807 10.255 86.7807 10.485C87.1807 10.715 87.6357 10.83 88.1457 10.83ZM99.7215 11.325V5.31H96.2715L96.1965 6.84C96.1765 7.34 96.1415 7.825 96.0915 8.295C96.0515 8.755 95.9815 9.18 95.8815 9.57C95.7915 9.96 95.6565 10.28 95.4765 10.53C95.2965 10.78 95.0565 10.935 94.7565 10.995L93.3315 10.74C93.6415 10.75 93.8915 10.65 94.0815 10.44C94.2715 10.22 94.4165 9.92 94.5165 9.54C94.6265 9.16 94.7065 8.73 94.7565 8.25C94.8065 7.76 94.8465 7.255 94.8765 6.735L94.9965 4.05H101.161V11.325H99.7215ZM93.0165 13.845V10.74H102.376V13.845H101.026V12H94.3815V13.845H93.0165ZM107.792 12.09C106.942 12.09 106.192 11.915 105.542 11.565C104.902 11.215 104.402 10.735 104.042 10.125C103.692 9.515 103.517 8.815 103.517 8.025C103.517 7.235 103.687 6.535 104.027 5.925C104.377 5.315 104.852 4.84 105.452 4.5C106.062 4.15 106.747 3.975 107.507 3.975C108.277 3.975 108.957 4.145 109.547 4.485C110.137 4.825 110.597 5.305 110.927 5.925C111.267 6.535 111.437 7.25 111.437 8.07C111.437 8.13 111.432 8.2 111.422 8.28C111.422 8.36 111.417 8.435 111.407 8.505H104.642V7.47H110.657L110.072 7.83C110.082 7.32 109.977 6.865 109.757 6.465C109.537 6.065 109.232 5.755 108.842 5.535C108.462 5.305 108.017 5.19 107.507 5.19C107.007 5.19 106.562 5.305 106.172 5.535C105.782 5.755 105.477 6.07 105.257 6.48C105.037 6.88 104.927 7.34 104.927 7.86V8.1C104.927 8.63 105.047 9.105 105.287 9.525C105.537 9.935 105.882 10.255 106.322 10.485C106.762 10.715 107.267 10.83 107.837 10.83C108.307 10.83 108.732 10.75 109.112 10.59C109.502 10.43 109.842 10.19 110.132 9.87L110.927 10.8C110.567 11.22 110.117 11.54 109.577 11.76C109.047 11.98 108.452 12.09 107.792 12.09ZM112.22 11.985L112.31 10.77C112.38 10.78 112.445 10.79 112.505 10.8C112.565 10.81 112.62 10.815 112.67 10.815C112.99 10.815 113.24 10.705 113.42 10.485C113.61 10.265 113.75 9.975 113.84 9.615C113.93 9.245 113.995 8.83 114.035 8.37C114.075 7.91 114.105 7.45 114.125 6.99L114.26 4.05H120.365V12H118.925V4.89L119.27 5.31H115.19L115.52 4.875L115.415 7.08C115.385 7.78 115.33 8.435 115.25 9.045C115.17 9.655 115.045 10.19 114.875 10.65C114.715 11.11 114.49 11.47 114.2 11.73C113.92 11.99 113.555 12.12 113.105 12.12C112.975 12.12 112.835 12.105 112.685 12.075C112.545 12.055 112.39 12.025 112.22 11.985ZM126.824 6.75C127.834 6.76 128.604 6.99 129.134 7.44C129.664 7.89 129.929 8.525 129.929 9.345C129.929 10.205 129.639 10.87 129.059 11.34C128.479 11.8 127.659 12.025 126.599 12.015L123.149 12V4.05H124.589V6.735L126.824 6.75ZM126.479 10.92C127.129 10.93 127.619 10.8 127.949 10.53C128.289 10.26 128.459 9.86 128.459 9.33C128.459 8.81 128.294 8.43 127.964 8.19C127.634 7.95 127.139 7.825 126.479 7.815L124.589 7.785V10.905L126.479 10.92ZM137.38 12V4.935L137.74 5.31H134.47V4.05H141.73V5.31H138.475L138.82 4.935V12H137.38ZM146.391 12.09C145.541 12.09 144.791 11.915 144.141 11.565C143.501 11.215 143.001 10.735 142.641 10.125C142.291 9.515 142.116 8.815 142.116 8.025C142.116 7.235 142.286 6.535 142.626 5.925C142.976 5.315 143.451 4.84 144.051 4.5C144.661 4.15 145.346 3.975 146.106 3.975C146.876 3.975 147.556 4.145 148.146 4.485C148.736 4.825 149.196 5.305 149.526 5.925C149.866 6.535 150.036 7.25 150.036 8.07C150.036 8.13 150.031 8.2 150.021 8.28C150.021 8.36 150.016 8.435 150.006 8.505H143.241V7.47H149.256L148.671 7.83C148.681 7.32 148.576 6.865 148.356 6.465C148.136 6.065 147.831 5.755 147.441 5.535C147.061 5.305 146.616 5.19 146.106 5.19C145.606 5.19 145.161 5.305 144.771 5.535C144.381 5.755 144.076 6.07 143.856 6.48C143.636 6.88 143.526 7.34 143.526 7.86V8.1C143.526 8.63 143.646 9.105 143.886 9.525C144.136 9.935 144.481 10.255 144.921 10.485C145.361 10.715 145.866 10.83 146.436 10.83C146.906 10.83 147.331 10.75 147.711 10.59C148.101 10.43 148.441 10.19 148.731 9.87L149.526 10.8C149.166 11.22 148.716 11.54 148.176 11.76C147.646 11.98 147.051 12.09 146.391 12.09ZM150.818 11.985L150.908 10.77C150.978 10.78 151.043 10.79 151.103 10.8C151.163 10.81 151.218 10.815 151.268 10.815C151.588 10.815 151.838 10.705 152.018 10.485C152.208 10.265 152.348 9.975 152.438 9.615C152.528 9.245 152.593 8.83 152.633 8.37C152.673 7.91 152.703 7.45 152.723 6.99L152.858 4.05H158.963V12H157.523V4.89L157.868 5.31H153.788L154.118 4.875L154.013 7.08C153.983 7.78 153.928 8.435 153.848 9.045C153.768 9.655 153.643 10.19 153.473 10.65C153.313 11.11 153.088 11.47 152.798 11.73C152.518 11.99 152.153 12.12 151.703 12.12C151.573 12.12 151.433 12.105 151.283 12.075C151.143 12.055 150.988 12.025 150.818 11.985ZM165.288 12.09C164.438 12.09 163.688 11.915 163.038 11.565C162.398 11.215 161.898 10.735 161.538 10.125C161.188 9.515 161.013 8.815 161.013 8.025C161.013 7.235 161.183 6.535 161.523 5.925C161.873 5.315 162.348 4.84 162.948 4.5C163.558 4.15 164.243 3.975 165.003 3.975C165.773 3.975 166.453 4.145 167.043 4.485C167.633 4.825 168.093 5.305 168.423 5.925C168.763 6.535 168.933 7.25 168.933 8.07C168.933 8.13 168.928 8.2 168.918 8.28C168.918 8.36 168.913 8.435 168.903 8.505H162.138V7.47H168.153L167.568 7.83C167.578 7.32 167.473 6.865 167.253 6.465C167.033 6.065 166.728 5.755 166.338 5.535C165.958 5.305 165.513 5.19 165.003 5.19C164.503 5.19 164.058 5.305 163.668 5.535C163.278 5.755 162.973 6.07 162.753 6.48C162.533 6.88 162.423 7.34 162.423 7.86V8.1C162.423 8.63 162.543 9.105 162.783 9.525C163.033 9.935 163.378 10.255 163.818 10.485C164.258 10.715 164.763 10.83 165.333 10.83C165.803 10.83 166.228 10.75 166.608 10.59C166.998 10.43 167.338 10.19 167.628 9.87L168.423 10.8C168.063 11.22 167.613 11.54 167.073 11.76C166.543 11.98 165.948 12.09 165.288 12.09ZM175.906 12.12C175.896 12.12 175.861 12.12 175.801 12.12C175.751 12.12 175.701 12.12 175.651 12.12C175.601 12.12 175.571 12.12 175.561 12.12C173.931 12.1 172.666 11.74 171.766 11.04C170.866 10.33 170.416 9.32 170.416 8.01C170.416 6.71 170.866 5.715 171.766 5.025C172.676 4.325 173.956 3.97 175.606 3.96C175.626 3.96 175.656 3.96 175.696 3.96C175.746 3.96 175.791 3.96 175.831 3.96C175.881 3.96 175.911 3.96 175.921 3.96C177.591 3.96 178.886 4.31 179.806 5.01C180.736 5.71 181.201 6.71 181.201 8.01C181.201 9.33 180.736 10.345 179.806 11.055C178.876 11.765 177.576 12.12 175.906 12.12ZM175.876 10.86C176.746 10.86 177.466 10.75 178.036 10.53C178.616 10.31 179.051 9.99 179.341 9.57C179.631 9.15 179.776 8.63 179.776 8.01C179.776 7.4 179.631 6.89 179.341 6.48C179.051 6.07 178.616 5.76 178.036 5.55C177.466 5.34 176.746 5.235 175.876 5.235C175.856 5.235 175.816 5.235 175.756 5.235C175.696 5.235 175.661 5.235 175.651 5.235C174.801 5.235 174.091 5.345 173.521 5.565C172.961 5.775 172.541 6.085 172.261 6.495C171.981 6.905 171.841 7.41 171.841 8.01C171.841 8.62 171.981 9.135 172.261 9.555C172.551 9.975 172.976 10.295 173.536 10.515C174.106 10.735 174.811 10.85 175.651 10.86C175.671 10.86 175.706 10.86 175.756 10.86C175.816 10.86 175.856 10.86 175.876 10.86ZM175.096 14.91V0.869999H176.506V14.91H175.096ZM186.642 12.09C185.842 12.09 185.132 11.915 184.512 11.565C183.892 11.215 183.402 10.735 183.042 10.125C182.682 9.505 182.502 8.805 182.502 8.025C182.502 7.235 182.682 6.535 183.042 5.925C183.402 5.315 183.892 4.84 184.512 4.5C185.132 4.15 185.842 3.975 186.642 3.975C187.432 3.975 188.137 4.15 188.757 4.5C189.387 4.84 189.877 5.315 190.227 5.925C190.587 6.525 190.767 7.225 190.767 8.025C190.767 8.815 190.587 9.515 190.227 10.125C189.877 10.735 189.387 11.215 188.757 11.565C188.137 11.915 187.432 12.09 186.642 12.09ZM186.642 10.83C187.152 10.83 187.607 10.715 188.007 10.485C188.417 10.255 188.737 9.93 188.967 9.51C189.197 9.08 189.312 8.585 189.312 8.025C189.312 7.455 189.197 6.965 188.967 6.555C188.737 6.135 188.417 5.81 188.007 5.58C187.607 5.35 187.152 5.235 186.642 5.235C186.132 5.235 185.677 5.35 185.277 5.58C184.877 5.81 184.557 6.135 184.317 6.555C184.077 6.965 183.957 7.455 183.957 8.025C183.957 8.585 184.077 9.08 184.317 9.51C184.557 9.93 184.877 10.255 185.277 10.485C185.677 10.715 186.132 10.83 186.642 10.83ZM192.846 12V4.05H194.286V7.425H198.816V4.05H200.256V12H198.816V8.67H194.286V12H192.846ZM207.931 12V10.32L207.856 10.005V7.14C207.856 6.53 207.676 6.06 207.316 5.73C206.966 5.39 206.436 5.22 205.726 5.22C205.256 5.22 204.796 5.3 204.346 5.46C203.896 5.61 203.516 5.815 203.206 6.075L202.606 4.995C203.016 4.665 203.506 4.415 204.076 4.245C204.656 4.065 205.261 3.975 205.891 3.975C206.981 3.975 207.821 4.24 208.411 4.77C209.001 5.3 209.296 6.11 209.296 7.2V12H207.931ZM205.321 12.09C204.731 12.09 204.211 11.99 203.761 11.79C203.321 11.59 202.981 11.315 202.741 10.965C202.501 10.605 202.381 10.2 202.381 9.75C202.381 9.32 202.481 8.93 202.681 8.58C202.891 8.23 203.226 7.95 203.686 7.74C204.156 7.53 204.786 7.425 205.576 7.425H208.096V8.46H205.636C204.916 8.46 204.431 8.58 204.181 8.82C203.931 9.06 203.806 9.35 203.806 9.69C203.806 10.08 203.961 10.395 204.271 10.635C204.581 10.865 205.011 10.98 205.561 10.98C206.101 10.98 206.571 10.86 206.971 10.62C207.381 10.38 207.676 10.03 207.856 9.57L208.141 10.56C207.951 11.03 207.616 11.405 207.136 11.685C206.656 11.955 206.051 12.09 205.321 12.09Z" fill="#101010"/>
</svg>
