<svg width="31" height="21" viewBox="0 0 31 21" fill="none" xmlns="http://www.w3.org/2000/svg">
<path d="M0 2.99968C0 1.96158 0.575033 1.40181 1.7251 1.32039L6.15682 1.35093C6.45425 1.35093 6.65254 1.50359 6.75168 1.80891C7.20774 3.33554 7.71833 4.65353 8.28345 5.76288C8.84857 6.87223 9.58719 8.14951 10.4993 9.59471C10.5786 9.77791 10.7075 9.8695 10.886 9.8695C11.0248 9.8695 11.1338 9.79826 11.2131 9.65578L11.3024 9.31992L11.3321 4.03779C11.3321 3.6714 11.2478 3.42714 11.0793 3.30501C10.9108 3.18288 10.5985 3.09128 10.1424 3.03022C9.78547 2.96915 9.60702 2.74524 9.60702 2.3585C9.60702 2.27708 9.61693 2.21601 9.63676 2.1753C10.0532 0.852227 11.2429 0.190689 13.2059 0.190689L14.8715 0.160156C15.625 0.160156 16.2496 0.353529 16.7454 0.740275C17.2411 1.12702 17.4889 1.73767 17.4889 2.57223V9.50311C17.6277 9.60489 17.7566 9.65578 17.8756 9.65578C18.173 9.65578 18.4308 9.47258 18.6489 9.10619C20.8301 5.97152 22.0099 3.87495 22.1883 2.81649C22.1883 2.79613 22.2082 2.74524 22.2478 2.66382C22.3866 2.3585 22.6147 2.09388 22.9319 1.86998C23.2492 1.64607 23.5268 1.49341 23.7647 1.41199C23.844 1.37128 23.9333 1.35093 24.0324 1.35093H28.6426L28.94 1.38146C29.3366 1.38146 29.6439 1.57483 29.8621 1.96158C29.9414 2.08371 29.9959 2.21601 30.0256 2.3585C30.0554 2.50098 30.0752 2.64347 30.0851 2.78595C30.095 2.92844 30.1 3.00986 30.1 3.03022V3.24394C29.9612 4.0785 29.6092 4.96903 29.0441 5.91554C28.479 6.86205 27.7602 7.88489 26.8877 8.98406C26.0153 10.0832 25.47 10.8058 25.2519 11.1519C25.0734 11.3961 24.9842 11.62 24.9842 11.8236C24.9842 11.9864 25.0635 12.1696 25.2221 12.3732L29.5646 17.9912C29.8026 18.3168 29.9215 18.6731 29.9215 19.0598C29.9215 19.528 29.7431 19.9147 29.3862 20.22C29.0292 20.5254 28.6029 20.6984 28.1072 20.7391L27.6016 20.7696H23.0806C23.0608 20.7696 23.0211 20.7747 22.9617 20.7849C22.9022 20.7951 22.8625 20.8002 22.8427 20.8002C22.4065 20.8002 22 20.6068 21.6232 20.22C21.4844 20.0572 20.5525 18.8563 18.8274 16.6172C18.7282 16.4747 18.5894 16.3424 18.411 16.2203C18.3317 16.546 18.2276 17.0141 18.0987 17.6248C17.9698 18.2354 17.8756 18.6731 17.8161 18.9377L17.7269 19.4567C17.5286 20.1691 17.1122 20.5966 16.4777 20.7391L16.0613 20.7696H13.1464C11.5007 20.7696 9.85983 19.9961 8.22396 18.4492C6.58809 16.9022 5.11581 14.9023 3.80711 12.4495C2.49842 9.99672 1.27895 7.14193 0.148715 3.88513C0.0495718 3.62051 0 3.32536 0 2.99968ZM17.8756 10.9076C17.4592 10.9076 17.0824 10.7906 16.7454 10.5565C16.4083 10.3224 16.2397 10.0018 16.2397 9.59471V2.57223C16.2397 2.16513 16.1406 1.87507 15.9423 1.70205C15.744 1.52903 15.397 1.44252 14.9013 1.44252L13.2059 1.50359C12.3533 1.50359 11.7089 1.65625 11.2726 1.96158C12.1451 2.38903 12.5813 3.0811 12.5813 4.03779V9.41152C12.5417 9.92039 12.3434 10.3428 11.9865 10.6786C11.6295 11.0145 11.233 11.1824 10.7967 11.1824C10.2019 11.1824 9.74582 10.8873 9.42856 10.297C7.88192 7.89507 6.73185 5.6153 5.97836 3.45767L5.71067 2.66382L1.75484 2.63329C1.49707 2.63329 1.35331 2.64856 1.32357 2.67909C1.29382 2.70962 1.27895 2.79613 1.27895 2.93862C1.27895 3.12181 1.29878 3.31519 1.33844 3.51874L1.96304 5.22856C3.62866 9.6456 5.43803 13.1263 7.39116 15.6707C9.34429 18.2151 11.2627 19.4873 13.1464 19.4873H16.1208C16.2397 19.4873 16.329 19.4516 16.3884 19.3804C16.4479 19.3091 16.4975 19.1718 16.5372 18.9682L16.5966 18.6629L17.1618 15.976C17.3204 15.6096 17.4592 15.3654 17.5782 15.2432C17.7963 15.0193 18.0541 14.9074 18.3515 14.9074C18.8274 14.9074 19.3132 15.2025 19.8089 15.7928L22.3371 19.0903C22.4957 19.3549 22.6642 19.4873 22.8427 19.4873H27.7503C28.3452 19.4873 28.6426 19.3346 28.6426 19.0293C28.6426 18.9275 28.6128 18.8257 28.5534 18.7239L24.2406 13.1976C23.9035 12.7701 23.735 12.3121 23.735 11.8236C23.735 11.3351 23.8936 10.8669 24.2109 10.4191C24.4686 10.012 24.9693 9.33519 25.7129 8.38868C26.4565 7.44217 27.1059 6.55672 27.6611 5.73235C28.2163 4.90797 28.5831 4.15992 28.7616 3.4882L28.8508 3.09128C28.831 3.05057 28.821 2.98442 28.821 2.89282C28.821 2.80122 28.8111 2.72489 28.7913 2.66382H24.1216C23.8242 2.78595 23.5863 2.96915 23.4078 3.21341L23.2293 3.79353C22.7336 5.19803 21.4348 7.36584 19.333 10.297C18.9166 10.7041 18.4308 10.9076 17.8756 10.9076Z" fill="#101010"/>
</svg>
